# xmcd CD database file
# Copyright (C) 1993-1998 Ti Kan
#
# Track frame offsets:
#	183
#	19310
#	38090
#	58305
#	71783
#	86420
#	102765
#	118705
#	138055
#	149453
#	165478
#	180798
#
# Disc length: 2603 seconds
#
# Revision: 1
# Processed by: cddbd v1.4b41PL1 Copyright (c) Steve Scherf et al.
# Submitted via: CDValet v3.31 - Copyright (c) 1997 Greg Leichner
#
DISCID=9d0a290c
DTITLE=Various Artist - Reggae At It's Best
DYEAR=1900
DGENRE=
TTITLE0=No Woman No Cry
TTITLE1=I Wanna Wake Up With You
TTITLE2=Dreadlock Holiday
TTITLE3=Jammin'
TTITLE4=Electric Avenue
TTITLE5=Many Rivers To Cross
TTITLE6=Could You Be Loved
TTITLE7=Sunshine Reggae
TTITLE8=Buffalo Soldier
TTITLE9=Boogie On Reggae Woman
TTITLE10=I Don't Wanna Dance
TTITLE11=The Harder They Come
EXTD=Schlapa
EXTT0=
EXTT1=
EXTT2=
EXTT3=
EXTT4=
EXTT5=
EXTT6=
EXTT7=
EXTT8=
EXTT9=
EXTT10=
EXTT11=
PLAYORDER=
